<svg width="40" height="40" fill="none" xmlns="http://www.w3.org/2000/svg"><path d="M19.625 5c-2.375 0-8.25.25-11.375 3.25C6 10.375 5.125 13.625 5 17.5c-.25 6.125 1.125 10 3.375 12 .5.375 1.75 1.375 4.125 2.125v3.125s0 1.25.75 1.5c.125 0 .25.125.375.125.75 0 1.375-.875 2.25-1.75.75-.875 1.375-1.5 1.75-2.125h2.75c2.375 0 8.25-.25 11.375-3.25 2.25-2.25 3.125-5.5 3.125-9.625C35 19 35 18.25 35 17.5c-.125-4.625-1.5-7.75-3.375-9.5-.75-.625-4-3-11-3h-1zm-.25 2.375H20.5c6.625 0 9.125 2.125 9.375 2.375 1.5 1.25 2.375 4 2.5 7.625v.5c.125.75.125 1.375.125 1.75-.125 3.75-.875 6.25-2.375 7.875C27.5 29.875 22 30 20.5 30h-2.375l-2 2.25-1.25 1.375-.25.375c-.25.25-.625.75-.875.875V29.25c-2.5-.625-3.5-1.5-3.75-1.75-1.75-1.5-2.75-5.125-2.5-10v-1.25c.25-3 1-5 2.25-6.375 2.625-2.375 8.125-2.5 9.625-2.5zm-.125 2.75a.439.439 0 000 .875c4.625 0 8.625 3.125 8.625 9 0 .625.875.625.875 0 0-6.375-4.25-10-9.5-9.875zm-4.954 1.156a1.093 1.093 0 00-.795.218c-1.25.625-2.501 1.877-2.126 3.252 0 0 .25 1.124 1.625 3.499.75 1.125 1.375 2.125 2 2.875.625.875 1.625 1.875 2.625 2.625 2 1.625 5.125 3.25 6.5 3.625 1.25.375 2.625-.875 3.25-2.125.25-.5.125-1.125-.375-1.5-.75-.75-2-1.625-2.875-2.125-.625-.375-1.375-.125-1.625.25l-.625.75C21.625 23 21 23 21 23c-4.125-1.125-5.25-5.375-5.25-5.375s0-.5.375-.875l.75-.625c.375-.25.625-1 .25-1.625-.25-.375-.625-1.125-1-1.5C15.75 12.5 15 11.625 15 11.625c-.19-.19-.438-.31-.704-.344zm5.829 1.344c-.625-.125-.75.875-.125.875 3.5.25 5.5 2.625 5.375 5.625-.125.625.875.625.875 0 .125-3.5-2.125-6.375-6.125-6.5zM20.5 15c-.625-.125-.625.875 0 .875 1.5 0 2.25.875 2.25 2.375.125.625 1 .625 1 0-.125-2-1.25-3.25-3.25-3.25z" fill="#AF9678"/></svg>