<svg width="40" height="40" fill="none" xmlns="http://www.w3.org/2000/svg"><path d="M20.067 3.333c-9.1 0-16.517 7.417-16.517 16.517 0 2.916.767 5.75 2.2 8.25l-2.333 8.566 8.75-2.3a16.52 16.52 0 007.9 2.017c9.1 0 16.516-7.417 16.516-16.517 0-4.416-1.716-8.566-4.833-11.683a16.36 16.36 0 00-11.683-4.85zm.016 2.783c3.667 0 7.1 1.434 9.7 4.034a13.707 13.707 0 014.017 9.716c0 7.567-6.167 13.717-13.733 13.717-2.467 0-4.884-.65-6.984-1.917l-.5-.283-5.2 1.367 1.384-5.067-.334-.533a13.647 13.647 0 01-2.1-7.3C6.35 12.283 12.5 6.116 20.083 6.116zm-5.866 6.1c-.267 0-.717.1-1.1.517-.367.417-1.45 1.433-1.45 3.45 0 2.033 1.483 3.983 1.666 4.267.234.283 2.934 4.45 7.084 6.216.983.45 1.75.7 2.35.884.983.316 1.883.266 2.6.166.8-.116 2.433-1 2.783-1.966.35-.967.35-1.784.25-1.967-.117-.167-.383-.267-.8-.45-.417-.233-2.45-1.233-2.817-1.367-.383-.133-.616-.2-.933.2-.267.417-1.067 1.35-1.3 1.617-.25.283-.483.317-.883.117-.434-.217-1.767-.65-3.334-2.05-1.233-1.1-2.05-2.45-2.3-2.867-.2-.4-.016-.65.184-.833.183-.184.45-.484.616-.734.217-.233.284-.416.417-.683.133-.283.067-.517-.033-.717-.1-.183-.934-2.25-1.284-3.066-.333-.8-.666-.7-.933-.717-.233 0-.5-.017-.783-.017z" fill="#AF9678"/></svg>