<svg width="40" height="40" fill="none" xmlns="http://www.w3.org/2000/svg"><path opacity=".2" d="M13.75 21.074l21.268-15.36a1.23 1.23 0 00-.972-.024L5.209 17.019a1.25 1.25 0 00.211 2.389l8.33 1.666zm7.017 6.175l-4.883 4.883a1.25 1.25 0 01-2.134-.884V21.074l7.017 6.175z" fill="#AF9678"/><path d="M36.134 4.959a2.494 2.494 0 00-2.545-.432L4.75 15.855a2.5 2.5 0 00.424 4.779l7.325 1.465v9.149a2.5 2.5 0 004.268 1.768l4.053-4.054 6.153 5.414a2.48 2.48 0 002.419.503 2.479 2.479 0 001.67-1.821l5.876-25.646a2.494 2.494 0 00-.805-2.453zM13.46 19.74l-7.794-1.559L27.49 9.608 13.461 19.74zM15 31.247v-7.408l3.94 3.468-3.94 3.94zm13.625 1.252L15.752 21.17 34.29 7.782l-5.665 24.717z" fill="#AF9678"/></svg>